# Blender v2.77 (sub 0) OBJ File: 'altarcenter.blend'
# www.blender.org
mtllib altarcenter.mtl
o Cube.002_Cube
v 0.000000 0.000000 1.000000
v 0.000000 0.000000 0.000000
v 1.000000 0.000000 0.000000
v 1.000000 0.000000 1.000000
v 0.000000 0.200000 1.000000
v 0.000000 0.200000 0.000000
v 1.000000 0.200000 0.000000
v 1.000000 0.200000 1.000000
v 0.105162 0.300000 0.894838
v 0.105162 0.300000 0.105162
v 0.894838 0.300000 0.105162
v 0.894838 0.300000 0.894838
v 0.178033 0.700000 0.821967
v 0.178033 0.700000 0.178033
v 0.821967 0.700000 0.178033
v 0.821967 0.700000 0.821967
vt 1.0000 0.2857
vt 0.0000 0.2857
vt 0.0000 0.0000
vt 1.0000 0.0000
vt 1.0000 0.2857
vt 1.0000 0.0000
vt 0.0000 0.2857
vt 1.0000 0.2857
vt 1.0000 0.0000
vt 0.0000 0.0000
vt 0.0000 0.2857
vt 0.0000 0.0000
vt 0.8948 0.4286
vt 0.1052 0.4286
vt 0.1052 0.4286
vt 0.1780 1.0000
vt 0.8220 1.0000
vt 0.8948 0.4286
vt 0.1052 0.4286
vt 0.8948 0.4286
vt 0.1780 1.0000
vt 0.8220 1.0000
vt 0.1780 1.0000
vt 0.8220 1.0000
vt 0.1697 0.1697
vt 0.8303 0.1697
vt 0.8303 0.8303
vt 0.1697 0.8303
vn -1.0000 0.0000 0.0000
vn 0.0000 0.0000 -1.0000
vn 1.0000 0.0000 0.0000
vn 0.0000 0.0000 1.0000
vn 0.0000 -1.0000 0.0000
vn 0.0000 0.7247 0.6891
vn 0.9838 0.1792 0.0000
vn 0.6891 0.7247 0.0000
vn -0.6891 0.7247 0.0000
vn 0.0000 0.7247 -0.6891
vn 0.0000 0.1792 0.9838
vn -0.9838 0.1792 0.0000
vn 0.0000 0.1792 -0.9838
vn 0.0000 1.0000 0.0000
usemtl None
s off
f 5/1/1 6/2/1 2/3/1 1/4/1
f 6/2/2 7/5/2 3/6/2 2/3/2
f 7/7/3 8/8/3 4/9/3 3/10/3
f 8/8/4 5/11/4 1/12/4 4/9/4
f 1/4/5 2/3/5 3/10/5 4/9/5
f 5/11/6 8/8/6 12/13/6 9/14/6
f 12/13/7 11/15/7 15/16/7 16/17/7
f 8/8/8 7/7/8 11/15/8 12/13/8
f 6/2/9 5/1/9 9/18/9 10/19/9
f 7/5/10 6/2/10 10/19/10 11/20/10
f 9/14/11 12/13/11 16/17/11 13/21/11
f 10/19/12 9/18/12 13/22/12 14/23/12
f 11/20/13 10/19/13 14/23/13 15/24/13
usemtl None_altartop.png
f 13/25/14 16/26/14 15/27/14 14/28/14
